<svg width="77" height="72" viewBox="0 0 77 72" fill="none" xmlns="http://www.w3.org/2000/svg">
<g filter="url(#filter0_i_27_119)">
<path d="M0 8C0 3.58172 3.58172 0 8 0H61.9926C68.3941 0 72.2028 7.14482 68.6344 12.4595L56.4126 30.6621C54.6429 33.2978 54.5992 36.7307 56.3013 39.4106L69.1948 59.7109C72.5776 65.037 68.7513 72 62.4417 72H8C3.58172 72 0 68.4183 0 64V8Z" fill="url(#paint0_linear_27_119)"/>
</g>
<path d="M55.9975 30.3833C55.7668 30.727 55.5636 31.0835 55.388 31.4498L55.8389 31.6659C55.5016 32.3699 55.2729 33.112 55.1531 33.8678L54.6593 33.7895C54.5308 34.6003 54.5203 35.4258 54.6281 36.2396L55.1238 36.1739C55.2243 36.9325 55.4341 37.6802 55.7534 38.3925L55.2971 38.597C55.4633 38.9677 55.6573 39.3293 55.8793 39.6787L56.4165 40.5245L56.8386 40.2565L57.913 41.9482L57.491 42.2162L58.5654 43.9079L58.9875 43.6399L60.0619 45.3315L59.6399 45.5996L60.7143 47.2913L61.1364 47.0232L62.2108 48.7149L61.7888 48.983L62.8632 50.6747L63.2853 50.4066L64.3597 52.0983L63.9377 52.3664L65.0121 54.0581L65.4342 53.79L66.5086 55.4817L66.0866 55.7497L67.161 57.4414L67.5831 57.1734L68.6575 58.8651L68.2355 59.1331L68.7727 59.979C68.9566 60.2685 69.1176 60.5627 69.2566 60.86L69.7095 60.6482C70.0212 61.3147 70.2306 61.998 70.3461 62.6828L69.8531 62.7659C69.9658 63.4345 69.983 64.1047 69.9133 64.7606L70.4105 64.8134C70.3348 65.5266 70.1629 66.2232 69.9052 66.8847L69.4393 66.7032C69.1961 67.3271 68.8715 67.9178 68.4752 68.4576L68.8782 68.7535C68.458 69.3258 67.9621 69.8443 67.4007 70.2906L67.0896 69.8992C66.5733 70.3096 65.9983 70.6545 65.3735 70.9178L65.5677 71.3785C64.9277 71.6482 64.2386 71.8378 63.5089 71.932L63.4449 71.4361C63.1194 71.4781 62.7847 71.5 62.4417 71.5H61.4695V72H59.5252V71.5H57.5808V72H55.6365V71.5H53.6922V72H51.7478V71.5H49.8035V72H47.8591V71.5H45.9148V72H43.9704V71.5H42.0261V72H40.0817V71.5H38.1374V72H36.193V71.5H34.2487V72H32.3043V71.5H30.36V72H28.4156V71.5H26.4713V72H24.5269V71.5H22.5826V72H20.6383V71.5H18.6939V72H16.7496V71.5H14.8052V72H12.8609V71.5H10.9165V72H8.97217V71.5H8C7.66754 71.5 7.34038 71.4784 7.0198 71.4366L6.95512 71.9324C6.24962 71.8404 5.57301 71.6564 4.9377 71.393L5.12922 70.9311C4.51976 70.6784 3.95063 70.3475 3.43439 69.9507L3.12972 70.3472C2.57552 69.9213 2.07868 69.4245 1.6528 68.8703L2.04926 68.5656C1.65255 68.0494 1.32164 67.4802 1.06891 66.8708L0.607043 67.0623C0.34359 66.427 0.159645 65.7504 0.0676179 65.0449L0.563418 64.9802C0.5216 64.6596 0.5 64.3325 0.5 64V63H0V61H0.5V59H0V57H0.5V55H0V53H0.5V51H0V49H0.5V47H0V45H0.5V43H0V41H0.5V39H0V37H0.5V35H0V33H0.5V31H0V29H0.5V27H0V25H0.5V23H0V21H0.5V19H0V17H0.5V15H0V13H0.5V11H0V9H0.5V8C0.5 7.66754 0.5216 7.34038 0.563418 7.0198L0.0676183 6.95513C0.159645 6.24962 0.343591 5.57301 0.607044 4.9377L1.06891 5.12922C1.32164 4.51976 1.65255 3.95064 2.04926 3.43439L1.6528 3.12973C2.07869 2.57552 2.57552 2.07869 3.12973 1.6528L3.43439 2.04926C3.95064 1.65255 4.51976 1.32164 5.12922 1.06891L4.9377 0.607044C5.57301 0.343591 6.24962 0.159645 6.95513 0.0676182L7.0198 0.563418C7.34039 0.5216 7.66755 0.5 8 0.5H9.03832V0H11.115V0.5H13.1916V0H15.2682V0.5H17.3449V0H19.4215V0.5H21.4981V0H23.5748V0.5H25.6514V0H27.7281V0.5H29.8047V0H31.8813V0.5H33.958V0H36.0346V0.5H38.1112V0H40.1879V0.5H42.2645V0H44.3412V0.5H46.4178V0H48.4944V0.5H50.5711V0H52.6477V0.5H54.7243V0H56.801V0.5H58.8776V0H60.9543V0.5H61.9926C62.34 0.5 62.6787 0.522342 63.0078 0.565261L63.0725 0.0694577C63.8115 0.165815 64.5082 0.359872 65.1541 0.635566L64.9578 1.09543C65.589 1.36483 66.1686 1.71768 66.6875 2.13717L67.0018 1.74833C67.5663 2.20462 68.063 2.7344 68.4816 3.31827L68.0753 3.60963C68.4702 4.16038 68.7912 4.76249 69.0283 5.39735L69.4967 5.22241C69.748 5.89546 69.911 6.60316 69.9752 7.32613L69.4771 7.37034C69.5361 8.03499 69.506 8.71285 69.3778 9.38703L69.869 9.48041C69.7379 10.1703 69.5106 10.8569 69.1787 11.5242L68.731 11.3015C68.5831 11.5987 68.4129 11.8923 68.2192 12.1808L67.6082 13.0909L68.0233 13.3696L66.8011 15.1899L66.386 14.9111L65.1638 16.7314L65.5789 17.0101L64.3568 18.8304L63.9416 18.5517L62.7195 20.3719L63.1346 20.6506L61.9124 22.4709L61.4973 22.1922L60.2751 24.0124L60.6902 24.2912L59.4681 26.1114L59.0529 25.8327L57.8308 27.653L58.2459 27.9317L57.0237 29.7519L56.6086 29.4732L55.9975 30.3833Z" stroke="#232323" stroke-dasharray="2 2"/>
<g filter="url(#filter1_di_27_119)">
<mask id="path-3-outside-1_27_119" maskUnits="userSpaceOnUse" x="22" y="14" width="39" height="44" fill="black">
<rect fill="white" x="22" y="14" width="39" height="44"/>
<path d="M23.56 15H32.38V57H23.56V15ZM47.32 15H57.52L40.12 34.68L58.42 57H47.98L29.86 34.92L47.32 15Z"/>
</mask>
<path d="M23.56 15H32.38V57H23.56V15ZM47.32 15H57.52L40.12 34.68L58.42 57H47.98L29.86 34.92L47.32 15Z" fill="#1D1D1D"/>
<path d="M23.56 15V14H22.56V15H23.56ZM32.38 15H33.38V14H32.38V15ZM32.38 57V58H33.38V57H32.38ZM23.56 57H22.56V58H23.56V57ZM47.32 15V14H46.8667L46.568 14.3409L47.32 15ZM57.52 15L58.2692 15.6624L59.739 14H57.52V15ZM40.12 34.68L39.3708 34.0176L38.8068 34.6555L39.3467 35.314L40.12 34.68ZM58.42 57V58H60.533L59.1933 56.366L58.42 57ZM47.98 57L47.207 57.6344L47.507 58H47.98V57ZM29.86 34.92L29.108 34.2609L28.5489 34.8987L29.087 35.5544L29.86 34.92ZM23.56 16H32.38V14H23.56V16ZM31.38 15V57H33.38V15H31.38ZM32.38 56H23.56V58H32.38V56ZM24.56 57V15H22.56V57H24.56ZM47.32 16H57.52V14H47.32V16ZM56.7708 14.3376L39.3708 34.0176L40.8692 35.3424L58.2692 15.6624L56.7708 14.3376ZM39.3467 35.314L57.6467 57.634L59.1933 56.366L40.8933 34.046L39.3467 35.314ZM58.42 56H47.98V58H58.42V56ZM48.753 56.3656L30.633 34.2856L29.087 35.5544L47.207 57.6344L48.753 56.3656ZM30.612 35.5791L48.072 15.6591L46.568 14.3409L29.108 34.2609L30.612 35.5791Z" fill="#191919" mask="url(#path-3-outside-1_27_119)"/>
</g>
<defs>
<filter id="filter0_i_27_119" x="0" y="0" width="70.4546" height="76" filterUnits="userSpaceOnUse" color-interpolation-filters="sRGB">
<feFlood flood-opacity="0" result="BackgroundImageFix"/>
<feBlend mode="normal" in="SourceGraphic" in2="BackgroundImageFix" result="shape"/>
<feColorMatrix in="SourceAlpha" type="matrix" values="0 0 0 0 0 0 0 0 0 0 0 0 0 0 0 0 0 0 127 0" result="hardAlpha"/>
<feOffset dy="4"/>
<feGaussianBlur stdDeviation="2"/>
<feComposite in2="hardAlpha" operator="arithmetic" k2="-1" k3="1"/>
<feColorMatrix type="matrix" values="0 0 0 0 0.126937 0 0 0 0 0.126937 0 0 0 0 0.126937 0 0 0 1 0"/>
<feBlend mode="normal" in2="shape" result="effect1_innerShadow_27_119"/>
</filter>
<filter id="filter1_di_27_119" x="19.5601" y="15" width="42.8599" height="50" filterUnits="userSpaceOnUse" color-interpolation-filters="sRGB">
<feFlood flood-opacity="0" result="BackgroundImageFix"/>
<feColorMatrix in="SourceAlpha" type="matrix" values="0 0 0 0 0 0 0 0 0 0 0 0 0 0 0 0 0 0 127 0" result="hardAlpha"/>
<feOffset dy="4"/>
<feGaussianBlur stdDeviation="2"/>
<feComposite in2="hardAlpha" operator="out"/>
<feColorMatrix type="matrix" values="0 0 0 0 0.166276 0 0 0 0 0.166276 0 0 0 0 0.166276 0 0 0 0.25 0"/>
<feBlend mode="normal" in2="BackgroundImageFix" result="effect1_dropShadow_27_119"/>
<feBlend mode="normal" in="SourceGraphic" in2="effect1_dropShadow_27_119" result="shape"/>
<feColorMatrix in="SourceAlpha" type="matrix" values="0 0 0 0 0 0 0 0 0 0 0 0 0 0 0 0 0 0 127 0" result="hardAlpha"/>
<feOffset dy="1"/>
<feGaussianBlur stdDeviation="2"/>
<feComposite in2="hardAlpha" operator="arithmetic" k2="-1" k3="1"/>
<feColorMatrix type="matrix" values="0 0 0 0 0.0412272 0 0 0 0 0.0412272 0 0 0 0 0.0412272 0 0 0 0.31 0"/>
<feBlend mode="normal" in2="shape" result="effect2_innerShadow_27_119"/>
</filter>
<linearGradient id="paint0_linear_27_119" x1="32" y1="-6" x2="57" y2="76.5" gradientUnits="userSpaceOnUse">
<stop stop-color="#262626"/>
<stop offset="1" stop-color="#1B1B1B"/>
</linearGradient>
</defs>
</svg>
