<svg width="965" height="424" viewBox="0 0 965 424" fill="none" xmlns="http://www.w3.org/2000/svg">
<g filter="url(#filter0_di_24_74)">
<mask id="path-1-outside-1_24_74" maskUnits="userSpaceOnUse" x="21" y="43" width="452" height="278" fill="black">
<rect fill="white" x="21" y="43" width="452" height="278"/>
<path d="M22.8 44H66.9V254H22.8V44ZM141.6 44H192.6L105.6 142.4L197.1 254H144.9L54.3 143.6L141.6 44ZM257.679 257C242.679 257 229.579 254 218.379 248C207.179 242 198.479 233.7 192.279 223.1C186.279 212.3 183.279 199.6 183.279 185C183.279 170.2 186.279 157.5 192.279 146.9C198.479 136.1 207.179 127.8 218.379 122C229.579 116 242.779 113 257.979 113C273.179 113 286.079 115.8 296.679 121.4C307.479 126.8 315.679 134.8 321.279 145.4C326.879 155.8 329.679 168.4 329.679 183.2C329.679 185 329.579 186.9 329.379 188.9C329.379 190.9 329.279 192.5 329.079 193.7H205.479V169.7H295.179L284.679 183.5C285.479 182.3 286.179 180.7 286.779 178.7C287.579 176.5 287.979 174.7 287.979 173.3C287.979 166.5 286.679 160.7 284.079 155.9C281.679 151.1 278.179 147.3 273.579 144.5C268.979 141.7 263.579 140.3 257.379 140.3C249.779 140.3 243.379 142 238.179 145.4C233.179 148.6 229.279 153.5 226.479 160.1C223.879 166.5 222.479 174.5 222.279 184.1C222.279 193.3 223.579 201.1 226.179 207.5C228.979 213.9 233.079 218.8 238.479 222.2C243.879 225.6 250.379 227.3 257.979 227.3C266.579 227.3 273.879 225.7 279.879 222.5C286.079 219.1 291.179 214.1 295.179 207.5L329.079 218C321.879 231 312.279 240.8 300.279 247.4C288.479 253.8 274.279 257 257.679 257ZM470.991 116L380.991 320H341.091L375.891 240.2L318.591 116H361.791L406.191 225.8L386.991 225.2L430.491 116H470.991Z"/>
</mask>
<path d="M22.8 44H66.9V254H22.8V44ZM141.6 44H192.6L105.6 142.4L197.1 254H144.9L54.3 143.6L141.6 44ZM257.679 257C242.679 257 229.579 254 218.379 248C207.179 242 198.479 233.7 192.279 223.1C186.279 212.3 183.279 199.6 183.279 185C183.279 170.2 186.279 157.5 192.279 146.9C198.479 136.1 207.179 127.8 218.379 122C229.579 116 242.779 113 257.979 113C273.179 113 286.079 115.8 296.679 121.4C307.479 126.8 315.679 134.8 321.279 145.4C326.879 155.8 329.679 168.4 329.679 183.2C329.679 185 329.579 186.9 329.379 188.9C329.379 190.9 329.279 192.5 329.079 193.7H205.479V169.7H295.179L284.679 183.5C285.479 182.3 286.179 180.7 286.779 178.7C287.579 176.5 287.979 174.7 287.979 173.3C287.979 166.5 286.679 160.7 284.079 155.9C281.679 151.1 278.179 147.3 273.579 144.5C268.979 141.7 263.579 140.3 257.379 140.3C249.779 140.3 243.379 142 238.179 145.4C233.179 148.6 229.279 153.5 226.479 160.1C223.879 166.5 222.479 174.5 222.279 184.1C222.279 193.3 223.579 201.1 226.179 207.5C228.979 213.9 233.079 218.8 238.479 222.2C243.879 225.6 250.379 227.3 257.979 227.3C266.579 227.3 273.879 225.7 279.879 222.5C286.079 219.1 291.179 214.1 295.179 207.5L329.079 218C321.879 231 312.279 240.8 300.279 247.4C288.479 253.8 274.279 257 257.679 257ZM470.991 116L380.991 320H341.091L375.891 240.2L318.591 116H361.791L406.191 225.8L386.991 225.2L430.491 116H470.991Z" fill="#191919" fill-opacity="0.86" shape-rendering="crispEdges"/>
<path d="M22.8 44V43H21.8V44H22.8ZM66.9 44H67.9V43H66.9V44ZM66.9 254V255H67.9V254H66.9ZM22.8 254H21.8V255H22.8V254ZM141.6 44V43H141.147L140.848 43.3408L141.6 44ZM192.6 44L193.349 44.6624L194.819 43H192.6V44ZM105.6 142.4L104.851 141.738L104.287 142.376L104.827 143.034L105.6 142.4ZM197.1 254V255H199.213L197.873 253.366L197.1 254ZM144.9 254L144.127 254.634L144.427 255H144.9V254ZM54.3 143.6L53.548 142.941L52.9889 143.579L53.527 144.234L54.3 143.6ZM22.8 45H66.9V43H22.8V45ZM65.9 44V254H67.9V44H65.9ZM66.9 253H22.8V255H66.9V253ZM23.8 254V44H21.8V254H23.8ZM141.6 45H192.6V43H141.6V45ZM191.851 43.3376L104.851 141.738L106.349 143.062L193.349 44.6624L191.851 43.3376ZM104.827 143.034L196.327 254.634L197.873 253.366L106.373 141.766L104.827 143.034ZM197.1 253H144.9V255H197.1V253ZM145.673 253.366L55.073 142.966L53.527 144.234L144.127 254.634L145.673 253.366ZM55.052 144.259L142.352 44.6591L140.848 43.3408L53.548 142.941L55.052 144.259ZM218.379 248L217.907 248.881L218.379 248ZM192.279 223.1L191.405 223.586L191.41 223.595L191.416 223.605L192.279 223.1ZM192.279 146.9L191.412 146.402L191.409 146.407L192.279 146.9ZM218.379 122L218.839 122.888L218.851 122.881L218.379 122ZM296.679 121.4L296.212 122.284L296.222 122.289L296.232 122.294L296.679 121.4ZM321.279 145.4L320.395 145.867L320.398 145.874L321.279 145.4ZM329.379 188.9L328.384 188.8L328.379 188.85V188.9H329.379ZM329.079 193.7V194.7H329.926L330.065 193.864L329.079 193.7ZM205.479 193.7H204.479V194.7H205.479V193.7ZM205.479 169.7V168.7H204.479V169.7H205.479ZM295.179 169.7L295.975 170.306L297.196 168.7H295.179V169.7ZM284.679 183.5L283.847 182.945L285.475 184.106L284.679 183.5ZM286.779 178.7L285.839 178.358L285.829 178.385L285.821 178.413L286.779 178.7ZM284.079 155.9L283.184 156.347L283.192 156.362L283.2 156.376L284.079 155.9ZM238.179 145.4L238.718 146.242L238.726 146.237L238.179 145.4ZM226.479 160.1L225.558 159.709L225.555 159.717L225.552 159.724L226.479 160.1ZM222.279 184.1L221.279 184.079L221.279 184.09V184.1H222.279ZM226.179 207.5L225.252 207.876L225.257 207.889L225.263 207.901L226.179 207.5ZM238.479 222.2L237.946 223.046L237.946 223.046L238.479 222.2ZM279.879 222.5L280.35 223.382L280.36 223.377L279.879 222.5ZM295.179 207.5L295.475 206.545L294.729 206.314L294.324 206.982L295.179 207.5ZM329.079 218L329.954 218.484L330.55 217.409L329.375 217.045L329.079 218ZM300.279 247.4L300.756 248.279L300.761 248.276L300.279 247.4ZM257.679 256C242.814 256 229.882 253.028 218.851 247.119L217.907 248.881C229.276 254.972 242.544 258 257.679 258V256ZM218.851 247.119C207.808 241.202 199.246 233.03 193.142 222.595L191.416 223.605C197.712 234.37 206.55 242.798 217.907 248.881L218.851 247.119ZM193.153 222.614C187.249 211.988 184.279 199.461 184.279 185H182.279C182.279 199.739 185.308 212.612 191.405 223.586L193.153 222.614ZM184.279 185C184.279 170.336 187.251 157.813 193.149 147.393L191.409 146.407C185.307 157.187 182.279 170.064 182.279 185H184.279ZM193.146 147.398C199.249 136.767 207.807 128.601 218.839 122.888L217.919 121.112C206.551 126.999 197.708 135.433 191.412 146.402L193.146 147.398ZM218.851 122.881C229.88 116.973 242.911 114 257.979 114V112C242.646 112 229.278 115.027 217.907 121.119L218.851 122.881ZM257.979 114C273.059 114 285.789 116.778 296.212 122.284L297.146 120.516C286.369 114.822 273.299 112 257.979 112V114ZM296.232 122.294C306.846 127.602 314.893 135.453 320.395 145.867L322.163 144.933C316.465 134.147 308.111 125.998 297.126 120.506L296.232 122.294ZM320.398 145.874C325.903 156.096 328.679 168.524 328.679 183.2H330.679C330.679 168.276 327.855 155.504 322.159 144.926L320.398 145.874ZM328.679 183.2C328.679 184.963 328.581 186.83 328.384 188.8L330.374 189C330.577 186.97 330.679 185.037 330.679 183.2H328.679ZM328.379 188.9C328.379 190.875 328.28 192.413 328.093 193.536L330.065 193.864C330.278 192.587 330.379 190.925 330.379 188.9H328.379ZM329.079 192.7H205.479V194.7H329.079V192.7ZM206.479 193.7V169.7H204.479V193.7H206.479ZM205.479 170.7H295.179V168.7H205.479V170.7ZM294.383 169.094L283.883 182.894L285.475 184.106L295.975 170.306L294.383 169.094ZM285.511 184.055C286.384 182.744 287.12 181.044 287.737 178.987L285.821 178.413C285.238 180.356 284.573 181.856 283.847 182.945L285.511 184.055ZM287.719 179.042C288.535 176.796 288.979 174.869 288.979 173.3H286.979C286.979 174.531 286.622 176.204 285.839 178.358L287.719 179.042ZM288.979 173.3C288.979 166.374 287.655 160.402 284.958 155.424L283.2 156.376C285.703 160.998 286.979 166.626 286.979 173.3H288.979ZM284.973 155.453C282.489 150.484 278.859 146.543 274.099 143.646L273.059 145.354C277.499 148.057 280.869 151.716 283.184 156.347L284.973 155.453ZM274.099 143.646C269.32 140.737 263.734 139.3 257.379 139.3V141.3C263.424 141.3 268.638 142.663 273.059 145.354L274.099 143.646ZM257.379 139.3C249.628 139.3 243.027 141.035 237.632 144.563L238.726 146.237C243.73 142.965 249.93 141.3 257.379 141.3V139.3ZM237.64 144.558C232.437 147.887 228.42 152.963 225.558 159.709L227.399 160.491C230.137 154.037 233.92 149.313 238.718 146.242L237.64 144.558ZM225.552 159.724C222.892 166.271 221.481 174.401 221.279 184.079L223.279 184.121C223.477 174.599 224.865 166.729 227.405 160.476L225.552 159.724ZM221.279 184.1C221.279 193.389 222.591 201.324 225.252 207.876L227.105 207.124C224.567 200.876 223.279 193.211 223.279 184.1H221.279ZM225.263 207.901C228.135 214.466 232.361 219.529 237.946 223.046L239.012 221.354C233.797 218.071 229.823 213.334 227.095 207.099L225.263 207.901ZM237.946 223.046C243.534 226.564 250.227 228.3 257.979 228.3V226.3C250.531 226.3 244.224 224.636 239.012 221.354L237.946 223.046ZM257.979 228.3C266.701 228.3 274.171 226.677 280.35 223.382L279.408 221.618C273.587 224.723 266.457 226.3 257.979 226.3V228.3ZM280.36 223.377C286.728 219.885 291.952 214.754 296.034 208.018L294.324 206.982C290.406 213.446 285.43 218.315 279.398 221.623L280.36 223.377ZM294.883 208.455L328.783 218.955L329.375 217.045L295.475 206.545L294.883 208.455ZM328.204 217.515C321.087 230.365 311.618 240.022 299.797 246.524L300.761 248.276C312.94 241.578 322.67 231.635 329.954 218.484L328.204 217.515ZM299.802 246.521C288.179 252.825 274.151 256 257.679 256V258C274.407 258 288.779 254.775 300.756 248.279L299.802 246.521ZM470.991 116L471.906 116.404L472.525 115H470.991V116ZM380.991 320V321H381.642L381.906 320.404L380.991 320ZM341.091 320L340.174 319.6L339.564 321H341.091V320ZM375.891 240.2L376.807 240.6L376.987 240.188L376.799 239.781L375.891 240.2ZM318.591 116V115H317.028L317.683 116.419L318.591 116ZM361.791 116L362.718 115.625L362.465 115H361.791V116ZM406.191 225.8L406.159 226.8L407.693 226.847L407.118 225.425L406.191 225.8ZM386.991 225.2L386.062 224.83L385.534 226.155L386.959 226.2L386.991 225.2ZM430.491 116V115H429.813L429.562 115.63L430.491 116ZM470.076 115.596L380.076 319.596L381.906 320.404L471.906 116.404L470.076 115.596ZM380.991 319H341.091V321H380.991V319ZM342.007 320.4L376.807 240.6L374.974 239.8L340.174 319.6L342.007 320.4ZM376.799 239.781L319.499 115.581L317.683 116.419L374.983 240.619L376.799 239.781ZM318.591 117H361.791V115H318.591V117ZM360.864 116.375L405.264 226.175L407.118 225.425L362.718 115.625L360.864 116.375ZM406.222 224.8L387.022 224.2L386.959 226.2L406.159 226.8L406.222 224.8ZM387.92 225.57L431.42 116.37L429.562 115.63L386.062 224.83L387.92 225.57ZM430.491 117H470.991V115H430.491V117Z" fill="#202020" mask="url(#path-1-outside-1_24_74)"/>
</g>
<g filter="url(#filter1_di_24_74)">
<mask id="path-3-outside-2_24_74" maskUnits="userSpaceOnUse" x="446" y="172" width="405" height="134" fill="black">
<rect fill="white" x="446" y="172" width="405" height="134"/>
<path d="M473.47 241.5C473.47 249.32 475.227 256.177 478.74 262.07C482.367 267.85 487.07 272.327 492.85 275.5C498.63 278.56 504.92 280.09 511.72 280.09C517.387 280.09 522.43 279.353 526.85 277.88C531.27 276.407 535.237 274.423 538.75 271.93C542.377 269.437 545.493 266.717 548.1 263.77V291.14C543.227 294.993 537.9 297.997 532.12 300.15C526.453 302.303 519.257 303.38 510.53 303.38C501.463 303.38 493.02 301.907 485.2 298.96C477.493 296.013 470.75 291.763 464.97 286.21C459.303 280.657 454.883 274.14 451.71 266.66C448.65 259.067 447.12 250.68 447.12 241.5C447.12 232.32 448.65 223.99 451.71 216.51C454.883 208.917 459.303 202.343 464.97 196.79C470.75 191.237 477.493 186.987 485.2 184.04C493.02 181.093 501.463 179.62 510.53 179.62C519.257 179.62 526.453 180.697 532.12 182.85C537.9 185.003 543.227 188.007 548.1 191.86V219.23C545.493 216.283 542.377 213.563 538.75 211.07C535.237 208.577 531.27 206.593 526.85 205.12C522.43 203.647 517.387 202.91 511.72 202.91C504.92 202.91 498.63 204.497 492.85 207.67C487.07 210.73 482.367 215.15 478.74 220.93C475.227 226.71 473.47 233.567 473.47 241.5ZM577.789 273.97L580.679 254.76H637.799L640.689 273.97H577.789ZM608.899 220.59L591.049 261.56L591.559 267L575.919 301H548.549L608.899 175.03L669.249 301H641.709L626.409 268.02L626.749 261.9L608.899 220.59ZM673.658 182H697.968V301H673.658V182ZM688.448 202.57V182H712.078C721.485 182 729.475 183.53 736.048 186.59C742.735 189.65 747.835 194.013 751.348 199.68C754.862 205.347 756.618 212.09 756.618 219.91C756.618 227.617 754.862 234.36 751.348 240.14C747.835 245.807 742.735 250.17 736.048 253.23C729.475 256.29 721.485 257.82 712.078 257.82H688.448V237.25H712.078C718.538 237.25 723.638 235.777 727.378 232.83C731.118 229.883 732.988 225.577 732.988 219.91C732.988 214.13 731.118 209.823 727.378 206.99C723.638 204.043 718.538 202.57 712.078 202.57H688.448ZM777.296 261.05C779.789 265.47 782.509 269.323 785.456 272.61C788.516 275.897 791.859 278.447 795.486 280.26C799.113 282.073 803.023 282.98 807.216 282.98C812.089 282.98 816.056 281.733 819.116 279.24C822.176 276.747 823.706 273.347 823.706 269.04C823.706 265.3 822.743 262.297 820.816 260.03C819.003 257.763 816.226 255.78 812.486 254.08C808.859 252.267 804.383 250.34 799.056 248.3C796.223 247.28 792.936 245.92 789.196 244.22C785.569 242.407 782.113 240.14 778.826 237.42C775.539 234.587 772.819 231.187 770.666 227.22C768.513 223.14 767.436 218.267 767.436 212.6C767.436 205.8 769.136 199.963 772.536 195.09C776.049 190.103 780.753 186.307 786.646 183.7C792.653 180.98 799.339 179.62 806.706 179.62C814.299 179.62 820.816 180.923 826.256 183.53C831.809 186.023 836.399 189.253 840.026 193.22C843.766 197.073 846.656 201.097 848.696 205.29L829.656 215.83C828.069 212.997 826.143 210.447 823.876 208.18C821.723 205.8 819.229 203.93 816.396 202.57C813.563 201.097 810.333 200.36 806.706 200.36C801.946 200.36 798.376 201.493 795.996 203.76C793.616 205.913 792.426 208.463 792.426 211.41C792.426 214.357 793.389 216.963 795.316 219.23C797.243 221.383 800.189 223.48 804.156 225.52C808.123 227.447 813.109 229.43 819.116 231.47C822.969 232.83 826.653 234.53 830.166 236.57C833.793 238.61 837.023 241.103 839.856 244.05C842.803 246.883 845.069 250.283 846.656 254.25C848.356 258.103 849.206 262.58 849.206 267.68C849.206 273.46 848.073 278.617 845.806 283.15C843.539 287.683 840.423 291.537 836.456 294.71C832.489 297.77 828.013 300.093 823.026 301.68C818.153 303.38 812.996 304.23 807.556 304.23C800.303 304.23 793.503 302.87 787.156 300.15C780.923 297.317 775.483 293.52 770.836 288.76C766.189 284 762.563 278.843 759.956 273.29L777.296 261.05Z"/>
</mask>
<path d="M473.47 241.5C473.47 249.32 475.227 256.177 478.74 262.07C482.367 267.85 487.07 272.327 492.85 275.5C498.63 278.56 504.92 280.09 511.72 280.09C517.387 280.09 522.43 279.353 526.85 277.88C531.27 276.407 535.237 274.423 538.75 271.93C542.377 269.437 545.493 266.717 548.1 263.77V291.14C543.227 294.993 537.9 297.997 532.12 300.15C526.453 302.303 519.257 303.38 510.53 303.38C501.463 303.38 493.02 301.907 485.2 298.96C477.493 296.013 470.75 291.763 464.97 286.21C459.303 280.657 454.883 274.14 451.71 266.66C448.65 259.067 447.12 250.68 447.12 241.5C447.12 232.32 448.65 223.99 451.71 216.51C454.883 208.917 459.303 202.343 464.97 196.79C470.75 191.237 477.493 186.987 485.2 184.04C493.02 181.093 501.463 179.62 510.53 179.62C519.257 179.62 526.453 180.697 532.12 182.85C537.9 185.003 543.227 188.007 548.1 191.86V219.23C545.493 216.283 542.377 213.563 538.75 211.07C535.237 208.577 531.27 206.593 526.85 205.12C522.43 203.647 517.387 202.91 511.72 202.91C504.92 202.91 498.63 204.497 492.85 207.67C487.07 210.73 482.367 215.15 478.74 220.93C475.227 226.71 473.47 233.567 473.47 241.5ZM577.789 273.97L580.679 254.76H637.799L640.689 273.97H577.789ZM608.899 220.59L591.049 261.56L591.559 267L575.919 301H548.549L608.899 175.03L669.249 301H641.709L626.409 268.02L626.749 261.9L608.899 220.59ZM673.658 182H697.968V301H673.658V182ZM688.448 202.57V182H712.078C721.485 182 729.475 183.53 736.048 186.59C742.735 189.65 747.835 194.013 751.348 199.68C754.862 205.347 756.618 212.09 756.618 219.91C756.618 227.617 754.862 234.36 751.348 240.14C747.835 245.807 742.735 250.17 736.048 253.23C729.475 256.29 721.485 257.82 712.078 257.82H688.448V237.25H712.078C718.538 237.25 723.638 235.777 727.378 232.83C731.118 229.883 732.988 225.577 732.988 219.91C732.988 214.13 731.118 209.823 727.378 206.99C723.638 204.043 718.538 202.57 712.078 202.57H688.448ZM777.296 261.05C779.789 265.47 782.509 269.323 785.456 272.61C788.516 275.897 791.859 278.447 795.486 280.26C799.113 282.073 803.023 282.98 807.216 282.98C812.089 282.98 816.056 281.733 819.116 279.24C822.176 276.747 823.706 273.347 823.706 269.04C823.706 265.3 822.743 262.297 820.816 260.03C819.003 257.763 816.226 255.78 812.486 254.08C808.859 252.267 804.383 250.34 799.056 248.3C796.223 247.28 792.936 245.92 789.196 244.22C785.569 242.407 782.113 240.14 778.826 237.42C775.539 234.587 772.819 231.187 770.666 227.22C768.513 223.14 767.436 218.267 767.436 212.6C767.436 205.8 769.136 199.963 772.536 195.09C776.049 190.103 780.753 186.307 786.646 183.7C792.653 180.98 799.339 179.62 806.706 179.62C814.299 179.62 820.816 180.923 826.256 183.53C831.809 186.023 836.399 189.253 840.026 193.22C843.766 197.073 846.656 201.097 848.696 205.29L829.656 215.83C828.069 212.997 826.143 210.447 823.876 208.18C821.723 205.8 819.229 203.93 816.396 202.57C813.563 201.097 810.333 200.36 806.706 200.36C801.946 200.36 798.376 201.493 795.996 203.76C793.616 205.913 792.426 208.463 792.426 211.41C792.426 214.357 793.389 216.963 795.316 219.23C797.243 221.383 800.189 223.48 804.156 225.52C808.123 227.447 813.109 229.43 819.116 231.47C822.969 232.83 826.653 234.53 830.166 236.57C833.793 238.61 837.023 241.103 839.856 244.05C842.803 246.883 845.069 250.283 846.656 254.25C848.356 258.103 849.206 262.58 849.206 267.68C849.206 273.46 848.073 278.617 845.806 283.15C843.539 287.683 840.423 291.537 836.456 294.71C832.489 297.77 828.013 300.093 823.026 301.68C818.153 303.38 812.996 304.23 807.556 304.23C800.303 304.23 793.503 302.87 787.156 300.15C780.923 297.317 775.483 293.52 770.836 288.76C766.189 284 762.563 278.843 759.956 273.29L777.296 261.05Z" fill="#191919" fill-opacity="0.86" shape-rendering="crispEdges"/>
<path d="M478.74 262.07L477.881 262.582L477.887 262.592L477.893 262.601L478.74 262.07ZM492.85 275.5L492.369 276.377L492.375 276.38L492.382 276.384L492.85 275.5ZM526.85 277.88L526.534 276.931L526.534 276.931L526.85 277.88ZM538.75 271.93L538.183 271.106L538.177 271.11L538.171 271.114L538.75 271.93ZM548.1 263.77H549.1V261.13L547.351 263.107L548.1 263.77ZM548.1 291.14L548.72 291.924L549.1 291.624V291.14H548.1ZM532.12 300.15L531.771 299.213L531.765 299.215L532.12 300.15ZM485.2 298.96L484.843 299.894L484.847 299.896L485.2 298.96ZM464.97 286.21L464.27 286.924L464.277 286.931L464.97 286.21ZM451.71 266.66L450.782 267.034L450.786 267.042L450.789 267.051L451.71 266.66ZM451.71 216.51L450.787 216.124L450.784 216.131L451.71 216.51ZM464.97 196.79L464.277 196.069L464.27 196.076L464.97 196.79ZM485.2 184.04L484.847 183.104L484.843 183.106L485.2 184.04ZM532.12 182.85L531.765 183.785L531.771 183.787L532.12 182.85ZM548.1 191.86H549.1V191.376L548.72 191.076L548.1 191.86ZM548.1 219.23L547.351 219.893L549.1 221.87V219.23H548.1ZM538.75 211.07L538.171 211.886L538.177 211.89L538.183 211.894L538.75 211.07ZM526.85 205.12L526.534 206.069L526.534 206.069L526.85 205.12ZM492.85 207.67L493.318 208.554L493.325 208.55L493.331 208.547L492.85 207.67ZM478.74 220.93L477.893 220.399L477.889 220.405L477.885 220.411L478.74 220.93ZM472.47 241.5C472.47 249.475 474.263 256.513 477.881 262.582L479.599 261.558C476.19 255.84 474.47 249.165 474.47 241.5H472.47ZM477.893 262.601C481.607 268.521 486.434 273.118 492.369 276.377L493.331 274.623C487.706 271.535 483.126 267.179 479.587 261.539L477.893 262.601ZM492.382 276.384C498.312 279.523 504.764 281.09 511.72 281.09V279.09C505.076 279.09 498.948 277.597 493.318 274.616L492.382 276.384ZM511.72 281.09C517.472 281.09 522.625 280.342 527.166 278.829L526.534 276.931C522.235 278.364 517.302 279.09 511.72 279.09V281.09ZM527.166 278.829C531.672 277.327 535.729 275.3 539.329 272.746L538.171 271.114C534.745 273.546 530.868 275.487 526.534 276.931L527.166 278.829ZM539.317 272.754C543.003 270.22 546.182 267.447 548.849 264.433L547.351 263.107C544.804 265.986 541.751 268.653 538.183 271.106L539.317 272.754ZM547.1 263.77V291.14H549.1V263.77H547.1ZM547.48 290.356C542.688 294.145 537.452 297.096 531.771 299.213L532.469 301.087C538.348 298.897 543.766 295.842 548.72 291.924L547.48 290.356ZM531.765 299.215C526.25 301.311 519.184 302.38 510.53 302.38V304.38C519.329 304.38 526.657 303.296 532.475 301.085L531.765 299.215ZM510.53 302.38C501.574 302.38 493.251 300.925 485.553 298.024L484.847 299.896C492.789 302.888 501.353 304.38 510.53 304.38V302.38ZM485.557 298.026C477.972 295.126 471.343 290.947 465.663 285.489L464.277 286.931C470.157 292.58 477.015 296.901 484.843 299.894L485.557 298.026ZM465.67 285.496C460.1 280.037 455.754 273.631 452.631 266.269L450.789 267.051C454.013 274.649 458.507 281.276 464.27 286.924L465.67 285.496ZM452.638 266.286C449.631 258.825 448.12 250.567 448.12 241.5H446.12C446.12 250.793 447.669 259.308 450.782 267.034L452.638 266.286ZM448.12 241.5C448.12 232.432 449.631 224.233 452.636 216.889L450.784 216.131C447.669 223.747 446.12 232.208 446.12 241.5H448.12ZM452.633 216.896C455.756 209.421 460.102 202.96 465.67 197.504L464.27 196.076C458.504 201.726 454.01 208.412 450.787 216.124L452.633 216.896ZM465.663 197.511C471.343 192.053 477.972 187.874 485.557 184.974L484.843 183.106C477.015 186.099 470.157 190.42 464.277 196.069L465.663 197.511ZM485.553 184.976C493.251 182.075 501.574 180.62 510.53 180.62V178.62C501.353 178.62 492.789 180.112 484.847 183.104L485.553 184.976ZM510.53 180.62C519.184 180.62 526.25 181.689 531.765 183.785L532.475 181.915C526.657 179.704 519.329 178.62 510.53 178.62V180.62ZM531.771 183.787C537.452 185.904 542.688 188.855 547.48 192.644L548.72 191.076C543.766 187.158 538.348 184.103 532.469 181.913L531.771 183.787ZM547.1 191.86V219.23H549.1V191.86H547.1ZM548.849 218.567C546.182 215.553 543.003 212.78 539.317 210.246L538.183 211.894C541.751 214.347 544.804 217.014 547.351 219.893L548.849 218.567ZM539.329 210.254C535.729 207.7 531.672 205.673 527.166 204.171L526.534 206.069C530.868 207.513 534.745 209.454 538.171 211.886L539.329 210.254ZM527.166 204.171C522.625 202.658 517.472 201.91 511.72 201.91V203.91C517.302 203.91 522.235 204.636 526.534 206.069L527.166 204.171ZM511.72 201.91C504.757 201.91 498.301 203.537 492.369 206.793L493.331 208.547C498.959 205.457 505.083 203.91 511.72 203.91V201.91ZM492.382 206.786C486.44 209.932 481.609 214.477 477.893 220.399L479.587 221.461C483.125 215.823 487.7 211.528 493.318 208.554L492.382 206.786ZM477.885 220.411C474.262 226.372 472.47 233.416 472.47 241.5H474.47C474.47 233.718 476.192 227.048 479.595 221.449L477.885 220.411ZM577.789 273.97L576.8 273.821L576.627 274.97H577.789V273.97ZM580.679 254.76V253.76H579.818L579.69 254.611L580.679 254.76ZM637.799 254.76L638.788 254.611L638.66 253.76H637.799V254.76ZM640.689 273.97V274.97H641.851L641.678 273.821L640.689 273.97ZM608.899 220.59L609.817 220.193L608.903 218.078L607.982 220.191L608.899 220.59ZM591.049 261.56L590.132 261.161L590.029 261.397L590.053 261.653L591.049 261.56ZM591.559 267L592.467 267.418L592.58 267.174L592.555 266.907L591.559 267ZM575.919 301V302H576.56L576.827 301.418L575.919 301ZM548.549 301L547.647 300.568L546.961 302H548.549V301ZM608.899 175.03L609.801 174.598L608.899 172.715L607.997 174.598L608.899 175.03ZM669.249 301V302H670.837L670.151 300.568L669.249 301ZM641.709 301L640.802 301.421L641.07 302H641.709V301ZM626.409 268.02L625.41 267.965L625.397 268.214L625.502 268.441L626.409 268.02ZM626.749 261.9L627.747 261.955L627.76 261.72L627.667 261.503L626.749 261.9ZM578.778 274.119L581.668 254.909L579.69 254.611L576.8 273.821L578.778 274.119ZM580.679 255.76H637.799V253.76H580.679V255.76ZM636.81 254.909L639.7 274.119L641.678 273.821L638.788 254.611L636.81 254.909ZM640.689 272.97H577.789V274.97H640.689V272.97ZM607.982 220.191L590.132 261.161L591.966 261.959L609.816 220.989L607.982 220.191ZM590.053 261.653L590.563 267.093L592.555 266.907L592.045 261.467L590.053 261.653ZM590.65 266.582L575.01 300.582L576.827 301.418L592.467 267.418L590.65 266.582ZM575.919 300H548.549V302H575.919V300ZM549.451 301.432L609.801 175.462L607.997 174.598L547.647 300.568L549.451 301.432ZM607.997 175.462L668.347 301.432L670.151 300.568L609.801 174.598L607.997 175.462ZM669.249 300H641.709V302H669.249V300ZM642.616 300.579L627.316 267.599L625.502 268.441L640.802 301.421L642.616 300.579ZM627.407 268.075L627.747 261.955L625.75 261.845L625.41 267.965L627.407 268.075ZM627.667 261.503L609.817 220.193L607.981 220.987L625.831 262.297L627.667 261.503ZM673.658 182V181H672.658V182H673.658ZM697.968 182H698.968V181H697.968V182ZM697.968 301V302H698.968V301H697.968ZM673.658 301H672.658V302H673.658V301ZM688.448 202.57H687.448V203.57H688.448V202.57ZM688.448 182V181H687.448V182H688.448ZM736.048 186.59L735.626 187.497L735.632 187.499L736.048 186.59ZM751.348 199.68L752.198 199.153L752.198 199.153L751.348 199.68ZM751.348 240.14L752.198 240.667L752.203 240.659L751.348 240.14ZM736.048 253.23L735.632 252.321L735.626 252.323L736.048 253.23ZM688.448 257.82H687.448V258.82H688.448V257.82ZM688.448 237.25V236.25H687.448V237.25H688.448ZM727.378 232.83L726.759 232.045L727.378 232.83ZM727.378 206.99L726.759 207.775L726.767 207.781L726.774 207.787L727.378 206.99ZM673.658 183H697.968V181H673.658V183ZM696.968 182V301H698.968V182H696.968ZM697.968 300H673.658V302H697.968V300ZM674.658 301V182H672.658V301H674.658ZM689.448 202.57V182H687.448V202.57H689.448ZM688.448 183H712.078V181H688.448V183ZM712.078 183C721.381 183 729.218 184.514 735.626 187.497L736.47 185.683C729.732 182.546 721.589 181 712.078 181V183ZM735.632 187.499C742.159 190.486 747.099 194.725 750.498 200.207L752.198 199.153C748.57 193.302 743.311 188.814 736.464 185.681L735.632 187.499ZM750.498 200.207C753.898 205.69 755.618 212.244 755.618 219.91H757.618C757.618 211.936 755.826 205.004 752.198 199.153L750.498 200.207ZM755.618 219.91C755.618 227.46 753.899 234.018 750.494 239.621L752.203 240.659C755.824 234.702 757.618 227.774 757.618 219.91H755.618ZM750.498 239.613C747.099 245.095 742.159 249.334 735.632 252.321L736.464 254.139C743.311 251.006 748.57 246.518 752.198 240.667L750.498 239.613ZM735.626 252.323C729.218 255.306 721.381 256.82 712.078 256.82V258.82C721.589 258.82 729.732 257.274 736.47 254.137L735.626 252.323ZM712.078 256.82H688.448V258.82H712.078V256.82ZM689.448 257.82V237.25H687.448V257.82H689.448ZM688.448 238.25H712.078V236.25H688.448V238.25ZM712.078 238.25C718.683 238.25 724.027 236.743 727.997 233.615L726.759 232.045C723.249 234.81 718.393 236.25 712.078 236.25V238.25ZM727.997 233.615C732.025 230.442 733.988 225.818 733.988 219.91H731.988C731.988 225.335 730.212 229.324 726.759 232.045L727.997 233.615ZM733.988 219.91C733.988 213.898 732.03 209.259 727.982 206.193L726.774 207.787C730.207 210.387 731.988 214.362 731.988 219.91H733.988ZM727.997 206.205C724.027 203.077 718.683 201.57 712.078 201.57V203.57C718.393 203.57 723.249 205.01 726.759 207.775L727.997 206.205ZM712.078 201.57H688.448V203.57H712.078V201.57ZM777.296 261.05L778.167 260.559L777.623 259.595L776.719 260.233L777.296 261.05ZM785.456 272.61L784.711 273.278L784.718 273.285L784.724 273.291L785.456 272.61ZM820.816 260.03L820.035 260.655L820.044 260.666L820.054 260.678L820.816 260.03ZM812.486 254.08L812.039 254.974L812.055 254.983L812.072 254.99L812.486 254.08ZM799.056 248.3L799.414 247.366L799.404 247.363L799.395 247.359L799.056 248.3ZM789.196 244.22L788.749 245.114L788.765 245.123L788.782 245.13L789.196 244.22ZM778.826 237.42L778.173 238.177L778.181 238.184L778.188 238.19L778.826 237.42ZM770.666 227.22L769.781 227.687L769.787 227.697L770.666 227.22ZM772.536 195.09L771.718 194.514L771.716 194.518L772.536 195.09ZM786.646 183.7L787.05 184.615L787.058 184.611L786.646 183.7ZM826.256 183.53L825.824 184.432L825.835 184.437L825.846 184.442L826.256 183.53ZM840.026 193.22L839.288 193.895L839.298 193.906L839.308 193.916L840.026 193.22ZM848.696 205.29L849.18 206.165L850.01 205.705L849.595 204.853L848.696 205.29ZM829.656 215.83L828.783 216.319L829.27 217.187L830.14 216.705L829.656 215.83ZM823.876 208.18L823.134 208.851L823.151 208.869L823.169 208.887L823.876 208.18ZM816.396 202.57L815.935 203.457L815.949 203.465L815.963 203.472L816.396 202.57ZM795.996 203.76L796.667 204.502L796.676 204.493L796.686 204.484L795.996 203.76ZM795.316 219.23L794.554 219.878L794.562 219.887L794.571 219.897L795.316 219.23ZM804.156 225.52L803.699 226.409L803.709 226.415L803.719 226.42L804.156 225.52ZM819.116 231.47L819.449 230.527L819.437 230.523L819.116 231.47ZM830.166 236.57L829.664 237.435L829.676 237.442L830.166 236.57ZM839.856 244.05L839.135 244.743L839.149 244.757L839.163 244.771L839.856 244.05ZM846.656 254.25L845.727 254.621L845.734 254.638L845.741 254.654L846.656 254.25ZM845.806 283.15L846.7 283.597L846.7 283.597L845.806 283.15ZM836.456 294.71L837.067 295.502L837.074 295.496L837.081 295.491L836.456 294.71ZM823.026 301.68L822.723 300.727L822.71 300.731L822.696 300.736L823.026 301.68ZM787.156 300.15L786.742 301.06L786.752 301.065L786.762 301.069L787.156 300.15ZM770.836 288.76L771.551 288.061L771.551 288.061L770.836 288.76ZM759.956 273.29L759.379 272.473L758.695 272.956L759.051 273.715L759.956 273.29ZM776.425 261.541C778.949 266.015 781.71 269.93 784.711 273.278L786.2 271.942C783.309 268.717 780.63 264.925 778.167 260.559L776.425 261.541ZM784.724 273.291C787.857 276.656 791.294 279.282 795.039 281.154L795.933 279.366C792.424 277.611 789.175 275.137 786.188 271.929L784.724 273.291ZM795.039 281.154C798.809 283.04 802.873 283.98 807.216 283.98V281.98C803.172 281.98 799.416 281.107 795.933 279.366L795.039 281.154ZM807.216 283.98C812.264 283.98 816.47 282.686 819.748 280.015L818.484 278.465C815.641 280.781 811.915 281.98 807.216 281.98V283.98ZM819.748 280.015C823.064 277.313 824.706 273.616 824.706 269.04H822.706C822.706 273.077 821.288 276.18 818.484 278.465L819.748 280.015ZM824.706 269.04C824.706 265.126 823.694 261.873 821.578 259.382L820.054 260.678C821.791 262.721 822.706 265.474 822.706 269.04H824.706ZM821.597 259.405C819.653 256.976 816.727 254.909 812.9 253.17L812.072 254.99C815.725 256.651 818.352 258.551 820.035 260.655L821.597 259.405ZM812.933 253.186C809.268 251.353 804.759 249.414 799.414 247.366L798.698 249.234C804.006 251.266 808.45 253.18 812.039 254.974L812.933 253.186ZM799.395 247.359C796.594 246.351 793.333 245.002 789.61 243.31L788.782 245.13C792.538 246.838 795.851 248.209 798.717 249.241L799.395 247.359ZM789.643 243.326C786.088 241.548 782.695 239.324 779.463 236.65L778.188 238.19C781.53 240.956 785.051 243.265 788.749 245.114L789.643 243.326ZM779.479 236.663C776.287 233.911 773.643 230.608 771.545 226.743L769.787 227.697C771.996 231.766 774.791 235.262 778.173 238.177L779.479 236.663ZM771.55 226.753C769.488 222.846 768.436 218.141 768.436 212.6H766.436C766.436 218.393 767.537 223.434 769.781 227.687L771.55 226.753ZM768.436 212.6C768.436 205.974 770.089 200.344 773.356 195.662L771.716 194.518C768.182 199.582 766.436 205.626 766.436 212.6H768.436ZM773.353 195.666C776.756 190.836 781.313 187.152 787.05 184.615L786.241 182.785C780.192 185.461 775.342 189.371 771.718 194.514L773.353 195.666ZM787.058 184.611C792.921 181.956 799.465 180.62 806.706 180.62V178.62C799.214 178.62 792.384 180.004 786.233 182.789L787.058 184.611ZM806.706 180.62C814.187 180.62 820.549 181.904 825.824 184.432L826.688 182.628C821.083 179.942 814.411 178.62 806.706 178.62V180.62ZM825.846 184.442C831.292 186.887 835.765 190.041 839.288 193.895L840.764 192.545C837.034 188.465 832.327 185.16 826.665 182.618L825.846 184.442ZM839.308 193.916C842.985 197.705 845.809 201.643 847.797 205.727L849.595 204.853C847.502 200.551 844.546 196.442 840.743 192.524L839.308 193.916ZM848.212 204.415L829.172 214.955L830.14 216.705L849.18 206.165L848.212 204.415ZM830.528 215.341C828.897 212.429 826.915 209.805 824.583 207.473L823.169 208.887C825.37 211.088 827.241 213.564 828.783 216.319L830.528 215.341ZM824.617 207.509C822.379 205.035 819.781 203.086 816.829 201.668L815.963 203.472C818.677 204.774 821.066 206.565 823.134 208.851L824.617 207.509ZM816.857 201.683C813.863 200.126 810.471 199.36 806.706 199.36V201.36C810.194 201.36 813.262 202.067 815.935 203.457L816.857 201.683ZM806.706 199.36C801.804 199.36 797.941 200.526 795.306 203.036L796.686 204.484C798.811 202.46 802.088 201.36 806.706 201.36V199.36ZM795.325 203.018C792.756 205.342 791.426 208.154 791.426 211.41H793.426C793.426 208.773 794.475 206.484 796.667 204.502L795.325 203.018ZM791.426 211.41C791.426 214.596 792.475 217.432 794.554 219.878L796.078 218.582C794.303 216.495 793.426 214.117 793.426 211.41H791.426ZM794.571 219.897C796.611 222.177 799.676 224.34 803.699 226.409L804.613 224.631C800.703 222.62 797.874 220.59 796.061 218.563L794.571 219.897ZM803.719 226.42C807.735 228.37 812.764 230.369 818.794 232.417L819.437 230.523C813.455 228.491 808.51 226.523 804.593 224.62L803.719 226.42ZM818.783 232.413C822.578 233.752 826.205 235.426 829.664 237.435L830.668 235.705C827.1 233.634 823.36 231.908 819.449 230.527L818.783 232.413ZM829.676 237.442C833.219 239.435 836.371 241.868 839.135 244.743L840.577 243.357C837.674 240.339 834.366 237.785 830.656 235.698L829.676 237.442ZM839.163 244.771C842.002 247.501 844.191 250.781 845.727 254.621L847.584 253.879C845.947 249.786 843.603 246.265 840.549 243.329L839.163 244.771ZM845.741 254.654C847.374 258.356 848.206 262.69 848.206 267.68H850.206C850.206 262.47 849.337 257.851 847.571 253.846L845.741 254.654ZM848.206 267.68C848.206 273.327 847.099 278.327 844.911 282.703L846.7 283.597C849.046 278.907 850.206 273.593 850.206 267.68H848.206ZM844.911 282.703C842.71 287.106 839.685 290.846 835.831 293.929L837.081 295.491C841.16 292.227 844.369 288.26 846.7 283.597L844.911 282.703ZM835.845 293.918C831.975 296.904 827.603 299.174 822.723 300.727L823.329 302.633C828.422 301.012 833.004 298.636 837.067 295.502L835.845 293.918ZM822.696 300.736C817.935 302.397 812.89 303.23 807.556 303.23V305.23C813.102 305.23 818.37 304.363 823.355 302.624L822.696 300.736ZM807.556 303.23C800.431 303.23 793.766 301.895 787.55 299.231L786.762 301.069C793.239 303.845 800.174 305.23 807.556 305.23V303.23ZM787.57 299.24C781.446 296.456 776.109 292.73 771.551 288.061L770.12 289.459C774.856 294.31 780.399 298.177 786.742 301.06L787.57 299.24ZM771.551 288.061C766.976 283.375 763.416 278.309 760.861 272.865L759.051 273.715C761.709 279.378 765.402 284.625 770.12 289.459L771.551 288.061ZM760.533 274.107L777.873 261.867L776.719 260.233L759.379 272.473L760.533 274.107Z" fill="#202020" mask="url(#path-3-outside-2_24_74)"/>
</g>
<defs>
<filter id="filter0_di_24_74" x="17.8" y="42" width="458.191" height="286" filterUnits="userSpaceOnUse" color-interpolation-filters="sRGB">
<feFlood flood-opacity="0" result="BackgroundImageFix"/>
<feColorMatrix in="SourceAlpha" type="matrix" values="0 0 0 0 0 0 0 0 0 0 0 0 0 0 0 0 0 0 127 0" result="hardAlpha"/>
<feOffset dy="3"/>
<feGaussianBlur stdDeviation="2.5"/>
<feComposite in2="hardAlpha" operator="out"/>
<feColorMatrix type="matrix" values="0 0 0 0 0.104378 0 0 0 0 0.104378 0 0 0 0 0.104378 0 0 0 1 0"/>
<feBlend mode="normal" in2="BackgroundImageFix" result="effect1_dropShadow_24_74"/>
<feBlend mode="normal" in="SourceGraphic" in2="effect1_dropShadow_24_74" result="shape"/>
<feColorMatrix in="SourceAlpha" type="matrix" values="0 0 0 0 0 0 0 0 0 0 0 0 0 0 0 0 0 0 127 0" result="hardAlpha"/>
<feOffset dy="4"/>
<feGaussianBlur stdDeviation="7"/>
<feComposite in2="hardAlpha" operator="arithmetic" k2="-1" k3="1"/>
<feColorMatrix type="matrix" values="0 0 0 0 0 0 0 0 0 0 0 0 0 0 0 0 0 0 1 0"/>
<feBlend mode="normal" in2="shape" result="effect2_innerShadow_24_74"/>
</filter>
<filter id="filter1_di_24_74" x="442.12" y="173.03" width="412.086" height="139.2" filterUnits="userSpaceOnUse" color-interpolation-filters="sRGB">
<feFlood flood-opacity="0" result="BackgroundImageFix"/>
<feColorMatrix in="SourceAlpha" type="matrix" values="0 0 0 0 0 0 0 0 0 0 0 0 0 0 0 0 0 0 127 0" result="hardAlpha"/>
<feOffset dy="3"/>
<feGaussianBlur stdDeviation="2.5"/>
<feComposite in2="hardAlpha" operator="out"/>
<feColorMatrix type="matrix" values="0 0 0 0 0.104378 0 0 0 0 0.104378 0 0 0 0 0.104378 0 0 0 1 0"/>
<feBlend mode="normal" in2="BackgroundImageFix" result="effect1_dropShadow_24_74"/>
<feBlend mode="normal" in="SourceGraphic" in2="effect1_dropShadow_24_74" result="shape"/>
<feColorMatrix in="SourceAlpha" type="matrix" values="0 0 0 0 0 0 0 0 0 0 0 0 0 0 0 0 0 0 127 0" result="hardAlpha"/>
<feOffset dy="4"/>
<feGaussianBlur stdDeviation="7"/>
<feComposite in2="hardAlpha" operator="arithmetic" k2="-1" k3="1"/>
<feColorMatrix type="matrix" values="0 0 0 0 0 0 0 0 0 0 0 0 0 0 0 0 0 0 1 0"/>
<feBlend mode="normal" in2="shape" result="effect2_innerShadow_24_74"/>
</filter>
</defs>
</svg>
