<svg width="899" height="400" viewBox="0 0 899 400" fill="none" xmlns="http://www.w3.org/2000/svg">
<g filter="url(#filter0_di_24_74)">
<mask id="path-1-outside-1_24_74" maskUnits="userSpaceOnUse" x="21" y="43" width="452" height="278" fill="black">
<rect fill="white" x="21" y="43" width="452" height="278"/>
<path d="M22.8 44H66.9V254H22.8V44ZM141.6 44H192.6L105.6 142.4L197.1 254H144.9L54.3 143.6L141.6 44ZM257.679 257C242.679 257 229.579 254 218.379 248C207.179 242 198.479 233.7 192.279 223.1C186.279 212.3 183.279 199.6 183.279 185C183.279 170.2 186.279 157.5 192.279 146.9C198.479 136.1 207.179 127.8 218.379 122C229.579 116 242.779 113 257.979 113C273.179 113 286.079 115.8 296.679 121.4C307.479 126.8 315.679 134.8 321.279 145.4C326.879 155.8 329.679 168.4 329.679 183.2C329.679 185 329.579 186.9 329.379 188.9C329.379 190.9 329.279 192.5 329.079 193.7H205.479V169.7H295.179L284.679 183.5C285.479 182.3 286.179 180.7 286.779 178.7C287.579 176.5 287.979 174.7 287.979 173.3C287.979 166.5 286.679 160.7 284.079 155.9C281.679 151.1 278.179 147.3 273.579 144.5C268.979 141.7 263.579 140.3 257.379 140.3C249.779 140.3 243.379 142 238.179 145.4C233.179 148.6 229.279 153.5 226.479 160.1C223.879 166.5 222.479 174.5 222.279 184.1C222.279 193.3 223.579 201.1 226.179 207.5C228.979 213.9 233.079 218.8 238.479 222.2C243.879 225.6 250.379 227.3 257.979 227.3C266.579 227.3 273.879 225.7 279.879 222.5C286.079 219.1 291.179 214.1 295.179 207.5L329.079 218C321.879 231 312.279 240.8 300.279 247.4C288.479 253.8 274.279 257 257.679 257ZM470.991 116L380.991 320H341.091L375.891 240.2L318.591 116H361.791L406.191 225.8L386.991 225.2L430.491 116H470.991Z"/>
</mask>
<path d="M22.8 44H66.9V254H22.8V44ZM141.6 44H192.6L105.6 142.4L197.1 254H144.9L54.3 143.6L141.6 44ZM257.679 257C242.679 257 229.579 254 218.379 248C207.179 242 198.479 233.7 192.279 223.1C186.279 212.3 183.279 199.6 183.279 185C183.279 170.2 186.279 157.5 192.279 146.9C198.479 136.1 207.179 127.8 218.379 122C229.579 116 242.779 113 257.979 113C273.179 113 286.079 115.8 296.679 121.4C307.479 126.8 315.679 134.8 321.279 145.4C326.879 155.8 329.679 168.4 329.679 183.2C329.679 185 329.579 186.9 329.379 188.9C329.379 190.9 329.279 192.5 329.079 193.7H205.479V169.7H295.179L284.679 183.5C285.479 182.3 286.179 180.7 286.779 178.7C287.579 176.5 287.979 174.7 287.979 173.3C287.979 166.5 286.679 160.7 284.079 155.9C281.679 151.1 278.179 147.3 273.579 144.5C268.979 141.7 263.579 140.3 257.379 140.3C249.779 140.3 243.379 142 238.179 145.4C233.179 148.6 229.279 153.5 226.479 160.1C223.879 166.5 222.479 174.5 222.279 184.1C222.279 193.3 223.579 201.1 226.179 207.5C228.979 213.9 233.079 218.8 238.479 222.2C243.879 225.6 250.379 227.3 257.979 227.3C266.579 227.3 273.879 225.7 279.879 222.5C286.079 219.1 291.179 214.1 295.179 207.5L329.079 218C321.879 231 312.279 240.8 300.279 247.4C288.479 253.8 274.279 257 257.679 257ZM470.991 116L380.991 320H341.091L375.891 240.2L318.591 116H361.791L406.191 225.8L386.991 225.2L430.491 116H470.991Z" fill="#191919" fill-opacity="0.86" shape-rendering="crispEdges"/>
<path d="M22.8 44V43H21.8V44H22.8ZM66.9 44H67.9V43H66.9V44ZM66.9 254V255H67.9V254H66.9ZM22.8 254H21.8V255H22.8V254ZM141.6 44V43H141.147L140.848 43.3408L141.6 44ZM192.6 44L193.349 44.6624L194.819 43H192.6V44ZM105.6 142.4L104.851 141.738L104.287 142.376L104.827 143.034L105.6 142.4ZM197.1 254V255H199.213L197.873 253.366L197.1 254ZM144.9 254L144.127 254.634L144.427 255H144.9V254ZM54.3 143.6L53.548 142.941L52.9889 143.579L53.527 144.234L54.3 143.6ZM22.8 45H66.9V43H22.8V45ZM65.9 44V254H67.9V44H65.9ZM66.9 253H22.8V255H66.9V253ZM23.8 254V44H21.8V254H23.8ZM141.6 45H192.6V43H141.6V45ZM191.851 43.3376L104.851 141.738L106.349 143.062L193.349 44.6624L191.851 43.3376ZM104.827 143.034L196.327 254.634L197.873 253.366L106.373 141.766L104.827 143.034ZM197.1 253H144.9V255H197.1V253ZM145.673 253.366L55.073 142.966L53.527 144.234L144.127 254.634L145.673 253.366ZM55.052 144.259L142.352 44.6591L140.848 43.3408L53.548 142.941L55.052 144.259ZM218.379 248L217.907 248.881L218.379 248ZM192.279 223.1L191.405 223.586L191.41 223.595L191.416 223.605L192.279 223.1ZM192.279 146.9L191.412 146.402L191.409 146.407L192.279 146.9ZM218.379 122L218.839 122.888L218.851 122.881L218.379 122ZM296.679 121.4L296.212 122.284L296.222 122.289L296.232 122.294L296.679 121.4ZM321.279 145.4L320.395 145.867L320.398 145.874L321.279 145.4ZM329.379 188.9L328.384 188.8L328.379 188.85V188.9H329.379ZM329.079 193.7V194.7H329.926L330.065 193.864L329.079 193.7ZM205.479 193.7H204.479V194.7H205.479V193.7ZM205.479 169.7V168.7H204.479V169.7H205.479ZM295.179 169.7L295.975 170.306L297.196 168.7H295.179V169.7ZM284.679 183.5L283.847 182.945L285.475 184.106L284.679 183.5ZM286.779 178.7L285.839 178.358L285.829 178.385L285.821 178.413L286.779 178.7ZM284.079 155.9L283.184 156.347L283.192 156.362L283.2 156.376L284.079 155.9ZM238.179 145.4L238.718 146.242L238.726 146.237L238.179 145.4ZM226.479 160.1L225.558 159.709L225.555 159.717L225.552 159.724L226.479 160.1ZM222.279 184.1L221.279 184.079L221.279 184.09V184.1H222.279ZM226.179 207.5L225.252 207.876L225.257 207.889L225.263 207.901L226.179 207.5ZM238.479 222.2L237.946 223.046L237.946 223.046L238.479 222.2ZM279.879 222.5L280.35 223.382L280.36 223.377L279.879 222.5ZM295.179 207.5L295.475 206.545L294.729 206.314L294.324 206.982L295.179 207.5ZM329.079 218L329.954 218.484L330.55 217.409L329.375 217.045L329.079 218ZM300.279 247.4L300.756 248.279L300.761 248.276L300.279 247.4ZM257.679 256C242.814 256 229.882 253.028 218.851 247.119L217.907 248.881C229.276 254.972 242.544 258 257.679 258V256ZM218.851 247.119C207.808 241.202 199.246 233.03 193.142 222.595L191.416 223.605C197.712 234.37 206.55 242.798 217.907 248.881L218.851 247.119ZM193.153 222.614C187.249 211.988 184.279 199.461 184.279 185H182.279C182.279 199.739 185.308 212.612 191.405 223.586L193.153 222.614ZM184.279 185C184.279 170.336 187.251 157.813 193.149 147.393L191.409 146.407C185.307 157.187 182.279 170.064 182.279 185H184.279ZM193.146 147.398C199.249 136.767 207.807 128.601 218.839 122.888L217.919 121.112C206.551 126.999 197.708 135.433 191.412 146.402L193.146 147.398ZM218.851 122.881C229.88 116.973 242.911 114 257.979 114V112C242.646 112 229.278 115.027 217.907 121.119L218.851 122.881ZM257.979 114C273.059 114 285.789 116.778 296.212 122.284L297.146 120.516C286.369 114.822 273.299 112 257.979 112V114ZM296.232 122.294C306.846 127.602 314.893 135.453 320.395 145.867L322.163 144.933C316.465 134.147 308.111 125.998 297.126 120.506L296.232 122.294ZM320.398 145.874C325.903 156.096 328.679 168.524 328.679 183.2H330.679C330.679 168.276 327.855 155.504 322.159 144.926L320.398 145.874ZM328.679 183.2C328.679 184.963 328.581 186.83 328.384 188.8L330.374 189C330.577 186.97 330.679 185.037 330.679 183.2H328.679ZM328.379 188.9C328.379 190.875 328.28 192.413 328.093 193.536L330.065 193.864C330.278 192.587 330.379 190.925 330.379 188.9H328.379ZM329.079 192.7H205.479V194.7H329.079V192.7ZM206.479 193.7V169.7H204.479V193.7H206.479ZM205.479 170.7H295.179V168.7H205.479V170.7ZM294.383 169.094L283.883 182.894L285.475 184.106L295.975 170.306L294.383 169.094ZM285.511 184.055C286.384 182.744 287.12 181.044 287.737 178.987L285.821 178.413C285.238 180.356 284.573 181.856 283.847 182.945L285.511 184.055ZM287.719 179.042C288.535 176.796 288.979 174.869 288.979 173.3H286.979C286.979 174.531 286.622 176.204 285.839 178.358L287.719 179.042ZM288.979 173.3C288.979 166.374 287.655 160.402 284.958 155.424L283.2 156.376C285.703 160.998 286.979 166.626 286.979 173.3H288.979ZM284.973 155.453C282.489 150.484 278.859 146.543 274.099 143.646L273.059 145.354C277.499 148.057 280.869 151.716 283.184 156.347L284.973 155.453ZM274.099 143.646C269.32 140.737 263.734 139.3 257.379 139.3V141.3C263.424 141.3 268.638 142.663 273.059 145.354L274.099 143.646ZM257.379 139.3C249.628 139.3 243.027 141.035 237.632 144.563L238.726 146.237C243.73 142.965 249.93 141.3 257.379 141.3V139.3ZM237.64 144.558C232.437 147.887 228.42 152.963 225.558 159.709L227.399 160.491C230.137 154.037 233.92 149.313 238.718 146.242L237.64 144.558ZM225.552 159.724C222.892 166.271 221.481 174.401 221.279 184.079L223.279 184.121C223.477 174.599 224.865 166.729 227.405 160.476L225.552 159.724ZM221.279 184.1C221.279 193.389 222.591 201.324 225.252 207.876L227.105 207.124C224.567 200.876 223.279 193.211 223.279 184.1H221.279ZM225.263 207.901C228.135 214.466 232.361 219.529 237.946 223.046L239.012 221.354C233.797 218.071 229.823 213.334 227.095 207.099L225.263 207.901ZM237.946 223.046C243.534 226.564 250.227 228.3 257.979 228.3V226.3C250.531 226.3 244.224 224.636 239.012 221.354L237.946 223.046ZM257.979 228.3C266.701 228.3 274.171 226.677 280.35 223.382L279.408 221.618C273.587 224.723 266.457 226.3 257.979 226.3V228.3ZM280.36 223.377C286.728 219.885 291.952 214.754 296.034 208.018L294.324 206.982C290.406 213.446 285.43 218.315 279.398 221.623L280.36 223.377ZM294.883 208.455L328.783 218.955L329.375 217.045L295.475 206.545L294.883 208.455ZM328.204 217.515C321.087 230.365 311.618 240.022 299.797 246.524L300.761 248.276C312.94 241.578 322.67 231.635 329.954 218.484L328.204 217.515ZM299.802 246.521C288.179 252.825 274.151 256 257.679 256V258C274.407 258 288.779 254.775 300.756 248.279L299.802 246.521ZM470.991 116L471.906 116.404L472.525 115H470.991V116ZM380.991 320V321H381.642L381.906 320.404L380.991 320ZM341.091 320L340.174 319.6L339.564 321H341.091V320ZM375.891 240.2L376.807 240.6L376.987 240.188L376.799 239.781L375.891 240.2ZM318.591 116V115H317.028L317.683 116.419L318.591 116ZM361.791 116L362.718 115.625L362.465 115H361.791V116ZM406.191 225.8L406.159 226.8L407.693 226.847L407.118 225.425L406.191 225.8ZM386.991 225.2L386.062 224.83L385.534 226.155L386.959 226.2L386.991 225.2ZM430.491 116V115H429.813L429.562 115.63L430.491 116ZM470.076 115.596L380.076 319.596L381.906 320.404L471.906 116.404L470.076 115.596ZM380.991 319H341.091V321H380.991V319ZM342.007 320.4L376.807 240.6L374.974 239.8L340.174 319.6L342.007 320.4ZM376.799 239.781L319.499 115.581L317.683 116.419L374.983 240.619L376.799 239.781ZM318.591 117H361.791V115H318.591V117ZM360.864 116.375L405.264 226.175L407.118 225.425L362.718 115.625L360.864 116.375ZM406.222 224.8L387.022 224.2L386.959 226.2L406.159 226.8L406.222 224.8ZM387.92 225.57L431.42 116.37L429.562 115.63L386.062 224.83L387.92 225.57ZM430.491 117H470.991V115H430.491V117Z" fill="#202020" mask="url(#path-1-outside-1_24_74)"/>
</g>
<g filter="url(#filter1_di_24_74)">
<mask id="path-3-outside-2_24_74" maskUnits="userSpaceOnUse" x="422" y="148" width="454" height="134" fill="black">
<rect fill="white" x="422" y="148" width="454" height="134"/>
<path d="M453.41 249.97L456.3 230.76H513.42L516.31 249.97H453.41ZM484.52 196.59L466.67 237.56L467.18 243L451.54 277H424.17L484.52 151.03L544.87 277H517.33L502.03 244.02L502.37 237.9L484.52 196.59ZM559.649 237.05C562.143 241.47 564.863 245.323 567.809 248.61C570.869 251.897 574.213 254.447 577.839 256.26C581.466 258.073 585.376 258.98 589.569 258.98C594.443 258.98 598.409 257.733 601.469 255.24C604.529 252.747 606.059 249.347 606.059 245.04C606.059 241.3 605.096 238.297 603.169 236.03C601.356 233.763 598.579 231.78 594.839 230.08C591.213 228.267 586.736 226.34 581.409 224.3C578.576 223.28 575.289 221.92 571.549 220.22C567.923 218.407 564.466 216.14 561.179 213.42C557.893 210.587 555.173 207.187 553.019 203.22C550.866 199.14 549.789 194.267 549.789 188.6C549.789 181.8 551.489 175.963 554.889 171.09C558.403 166.103 563.106 162.307 568.999 159.7C575.006 156.98 581.693 155.62 589.059 155.62C596.653 155.62 603.169 156.923 608.609 159.53C614.163 162.023 618.753 165.253 622.379 169.22C626.119 173.073 629.009 177.097 631.049 181.29L612.009 191.83C610.423 188.997 608.496 186.447 606.229 184.18C604.076 181.8 601.583 179.93 598.749 178.57C595.916 177.097 592.686 176.36 589.059 176.36C584.299 176.36 580.729 177.493 578.349 179.76C575.969 181.913 574.779 184.463 574.779 187.41C574.779 190.357 575.743 192.963 577.669 195.23C579.596 197.383 582.543 199.48 586.509 201.52C590.476 203.447 595.463 205.43 601.469 207.47C605.323 208.83 609.006 210.53 612.519 212.57C616.146 214.61 619.376 217.103 622.209 220.05C625.156 222.883 627.423 226.283 629.009 230.25C630.709 234.103 631.559 238.58 631.559 243.68C631.559 249.46 630.426 254.617 628.159 259.15C625.893 263.683 622.776 267.537 618.809 270.71C614.843 273.77 610.366 276.093 605.379 277.68C600.506 279.38 595.349 280.23 589.909 280.23C582.656 280.23 575.856 278.87 569.509 276.15C563.276 273.317 557.836 269.52 553.189 264.76C548.543 260 544.916 254.843 542.309 249.29L559.649 237.05ZM669.059 210.19L661.409 277H636.079L653.759 152.05L703.569 228.89L753.379 152.05L771.059 277H745.729L738.079 210.19L703.569 265.95L669.059 210.19ZM808.665 221.58H834.335L873.095 277H844.365L808.665 221.58ZM781.635 158H805.945V277H781.635V158ZM796.425 178.74V158H821.585C830.992 158 838.982 159.587 845.555 162.76C852.128 165.933 857.172 170.353 860.685 176.02C864.198 181.687 865.955 188.317 865.955 195.91C865.955 203.39 864.198 210.02 860.685 215.8C857.172 221.467 852.128 225.887 845.555 229.06C838.982 232.233 830.992 233.82 821.585 233.82H796.425V214.44H820.055C824.362 214.44 828.045 213.76 831.105 212.4C834.278 210.927 836.715 208.887 838.415 206.28C840.115 203.56 840.965 200.33 840.965 196.59C840.965 192.85 840.115 189.677 838.415 187.07C836.715 184.35 834.278 182.31 831.105 180.95C828.045 179.477 824.362 178.74 820.055 178.74H796.425Z"/>
</mask>
<path d="M453.41 249.97L456.3 230.76H513.42L516.31 249.97H453.41ZM484.52 196.59L466.67 237.56L467.18 243L451.54 277H424.17L484.52 151.03L544.87 277H517.33L502.03 244.02L502.37 237.9L484.52 196.59ZM559.649 237.05C562.143 241.47 564.863 245.323 567.809 248.61C570.869 251.897 574.213 254.447 577.839 256.26C581.466 258.073 585.376 258.98 589.569 258.98C594.443 258.98 598.409 257.733 601.469 255.24C604.529 252.747 606.059 249.347 606.059 245.04C606.059 241.3 605.096 238.297 603.169 236.03C601.356 233.763 598.579 231.78 594.839 230.08C591.213 228.267 586.736 226.34 581.409 224.3C578.576 223.28 575.289 221.92 571.549 220.22C567.923 218.407 564.466 216.14 561.179 213.42C557.893 210.587 555.173 207.187 553.019 203.22C550.866 199.14 549.789 194.267 549.789 188.6C549.789 181.8 551.489 175.963 554.889 171.09C558.403 166.103 563.106 162.307 568.999 159.7C575.006 156.98 581.693 155.62 589.059 155.62C596.653 155.62 603.169 156.923 608.609 159.53C614.163 162.023 618.753 165.253 622.379 169.22C626.119 173.073 629.009 177.097 631.049 181.29L612.009 191.83C610.423 188.997 608.496 186.447 606.229 184.18C604.076 181.8 601.583 179.93 598.749 178.57C595.916 177.097 592.686 176.36 589.059 176.36C584.299 176.36 580.729 177.493 578.349 179.76C575.969 181.913 574.779 184.463 574.779 187.41C574.779 190.357 575.743 192.963 577.669 195.23C579.596 197.383 582.543 199.48 586.509 201.52C590.476 203.447 595.463 205.43 601.469 207.47C605.323 208.83 609.006 210.53 612.519 212.57C616.146 214.61 619.376 217.103 622.209 220.05C625.156 222.883 627.423 226.283 629.009 230.25C630.709 234.103 631.559 238.58 631.559 243.68C631.559 249.46 630.426 254.617 628.159 259.15C625.893 263.683 622.776 267.537 618.809 270.71C614.843 273.77 610.366 276.093 605.379 277.68C600.506 279.38 595.349 280.23 589.909 280.23C582.656 280.23 575.856 278.87 569.509 276.15C563.276 273.317 557.836 269.52 553.189 264.76C548.543 260 544.916 254.843 542.309 249.29L559.649 237.05ZM669.059 210.19L661.409 277H636.079L653.759 152.05L703.569 228.89L753.379 152.05L771.059 277H745.729L738.079 210.19L703.569 265.95L669.059 210.19ZM808.665 221.58H834.335L873.095 277H844.365L808.665 221.58ZM781.635 158H805.945V277H781.635V158ZM796.425 178.74V158H821.585C830.992 158 838.982 159.587 845.555 162.76C852.128 165.933 857.172 170.353 860.685 176.02C864.198 181.687 865.955 188.317 865.955 195.91C865.955 203.39 864.198 210.02 860.685 215.8C857.172 221.467 852.128 225.887 845.555 229.06C838.982 232.233 830.992 233.82 821.585 233.82H796.425V214.44H820.055C824.362 214.44 828.045 213.76 831.105 212.4C834.278 210.927 836.715 208.887 838.415 206.28C840.115 203.56 840.965 200.33 840.965 196.59C840.965 192.85 840.115 189.677 838.415 187.07C836.715 184.35 834.278 182.31 831.105 180.95C828.045 179.477 824.362 178.74 820.055 178.74H796.425Z" fill="#191919" fill-opacity="0.86" shape-rendering="crispEdges"/>
<path d="M453.41 249.97L452.421 249.821L452.248 250.97H453.41V249.97ZM456.3 230.76V229.76H455.439L455.311 230.611L456.3 230.76ZM513.42 230.76L514.409 230.611L514.281 229.76H513.42V230.76ZM516.31 249.97V250.97H517.472L517.299 249.821L516.31 249.97ZM484.52 196.59L485.438 196.193L484.524 194.078L483.603 196.191L484.52 196.59ZM466.67 237.56L465.753 237.161L465.65 237.397L465.674 237.653L466.67 237.56ZM467.18 243L468.088 243.418L468.201 243.174L468.176 242.907L467.18 243ZM451.54 277V278H452.181L452.448 277.418L451.54 277ZM424.17 277L423.268 276.568L422.582 278H424.17V277ZM484.52 151.03L485.422 150.598L484.52 148.715L483.618 150.598L484.52 151.03ZM544.87 277V278H546.458L545.772 276.568L544.87 277ZM517.33 277L516.423 277.421L516.692 278H517.33V277ZM502.03 244.02L501.032 243.965L501.018 244.214L501.123 244.441L502.03 244.02ZM502.37 237.9L503.368 237.955L503.382 237.72L503.288 237.503L502.37 237.9ZM454.399 250.119L457.289 230.909L455.311 230.611L452.421 249.821L454.399 250.119ZM456.3 231.76H513.42V229.76H456.3V231.76ZM512.431 230.909L515.321 250.119L517.299 249.821L514.409 230.611L512.431 230.909ZM516.31 248.97H453.41V250.97H516.31V248.97ZM483.603 196.191L465.753 237.161L467.587 237.959L485.437 196.989L483.603 196.191ZM465.674 237.653L466.184 243.093L468.176 242.907L467.666 237.467L465.674 237.653ZM466.272 242.582L450.632 276.582L452.448 277.418L468.088 243.418L466.272 242.582ZM451.54 276H424.17V278H451.54V276ZM425.072 277.432L485.422 151.462L483.618 150.598L423.268 276.568L425.072 277.432ZM483.618 151.462L543.968 277.432L545.772 276.568L485.422 150.598L483.618 151.462ZM544.87 276H517.33V278H544.87V276ZM518.237 276.579L502.937 243.599L501.123 244.441L516.423 277.421L518.237 276.579ZM503.028 244.075L503.368 237.955L501.372 237.845L501.032 243.965L503.028 244.075ZM503.288 237.503L485.438 196.193L483.602 196.987L501.452 238.297L503.288 237.503ZM559.649 237.05L560.52 236.559L559.977 235.595L559.073 236.233L559.649 237.05ZM567.809 248.61L567.065 249.278L567.071 249.285L567.077 249.291L567.809 248.61ZM603.169 236.03L602.389 236.655L602.398 236.666L602.407 236.678L603.169 236.03ZM594.839 230.08L594.392 230.974L594.409 230.983L594.426 230.99L594.839 230.08ZM581.409 224.3L581.767 223.366L581.758 223.363L581.748 223.359L581.409 224.3ZM571.549 220.22L571.102 221.114L571.119 221.123L571.136 221.13L571.549 220.22ZM561.179 213.42L560.526 214.177L560.534 214.184L560.542 214.19L561.179 213.42ZM553.019 203.22L552.135 203.687L552.141 203.697L553.019 203.22ZM554.889 171.09L554.072 170.514L554.069 170.518L554.889 171.09ZM568.999 159.7L569.404 160.615L569.412 160.611L568.999 159.7ZM608.609 159.53L608.177 160.432L608.188 160.437L608.2 160.442L608.609 159.53ZM622.379 169.22L621.641 169.895L621.651 169.906L621.662 169.916L622.379 169.22ZM631.049 181.29L631.534 182.165L632.364 181.705L631.949 180.853L631.049 181.29ZM612.009 191.83L611.137 192.319L611.623 193.187L612.494 192.705L612.009 191.83ZM606.229 184.18L605.488 184.851L605.505 184.869L605.522 184.887L606.229 184.18ZM598.749 178.57L598.288 179.457L598.302 179.465L598.317 179.472L598.749 178.57ZM578.349 179.76L579.02 180.502L579.03 180.493L579.039 180.484L578.349 179.76ZM577.669 195.23L576.907 195.878L576.916 195.887L576.924 195.897L577.669 195.23ZM586.509 201.52L586.052 202.409L586.062 202.415L586.072 202.42L586.509 201.52ZM601.469 207.47L601.802 206.527L601.791 206.523L601.469 207.47ZM612.519 212.57L612.017 213.435L612.029 213.442L612.519 212.57ZM622.209 220.05L621.489 220.743L621.502 220.757L621.516 220.771L622.209 220.05ZM629.009 230.25L628.081 230.621L628.087 230.638L628.094 230.654L629.009 230.25ZM628.159 259.15L629.054 259.597L629.054 259.597L628.159 259.15ZM618.809 270.71L619.42 271.502L619.427 271.496L619.434 271.491L618.809 270.71ZM605.379 277.68L605.076 276.727L605.063 276.731L605.05 276.736L605.379 277.68ZM569.509 276.15L569.096 277.06L569.105 277.065L569.115 277.069L569.509 276.15ZM553.189 264.76L553.905 264.061L553.905 264.061L553.189 264.76ZM542.309 249.29L541.733 248.473L541.048 248.956L541.404 249.715L542.309 249.29ZM558.778 237.541C561.302 242.015 564.063 245.93 567.065 249.278L568.554 247.942C565.662 244.717 562.983 240.925 560.52 236.559L558.778 237.541ZM567.077 249.291C570.21 252.656 573.648 255.282 577.392 257.154L578.287 255.366C574.778 253.611 571.529 251.137 568.541 247.929L567.077 249.291ZM577.392 257.154C581.163 259.04 585.226 259.98 589.569 259.98V257.98C585.526 257.98 581.77 257.107 578.287 255.366L577.392 257.154ZM589.569 259.98C594.617 259.98 598.824 258.686 602.101 256.015L600.838 254.465C597.995 256.781 594.268 257.98 589.569 257.98V259.98ZM602.101 256.015C605.417 253.313 607.059 249.616 607.059 245.04H605.059C605.059 249.077 603.641 252.18 600.838 254.465L602.101 256.015ZM607.059 245.04C607.059 241.126 606.048 237.873 603.931 235.382L602.407 236.678C604.144 238.721 605.059 241.474 605.059 245.04H607.059ZM603.95 235.405C602.007 232.976 599.081 230.909 595.253 229.17L594.426 230.99C598.078 232.651 600.706 234.551 602.389 236.655L603.95 235.405ZM595.287 229.186C591.622 227.353 587.113 225.414 581.767 223.366L581.052 225.234C586.359 227.266 590.804 229.18 594.392 230.974L595.287 229.186ZM581.748 223.359C578.947 222.351 575.687 221.002 571.963 219.31L571.136 221.13C574.892 222.838 578.205 224.209 581.071 225.241L581.748 223.359ZM571.997 219.326C568.441 217.548 565.048 215.324 561.817 212.65L560.542 214.19C563.884 216.956 567.404 219.265 571.102 221.114L571.997 219.326ZM561.832 212.663C558.641 209.911 555.996 206.608 553.898 202.743L552.141 203.697C554.349 207.766 557.144 211.262 560.526 214.177L561.832 212.663ZM553.904 202.753C551.842 198.846 550.789 194.141 550.789 188.6H548.789C548.789 194.393 549.89 199.434 552.135 203.687L553.904 202.753ZM550.789 188.6C550.789 181.974 552.443 176.344 555.71 171.662L554.069 170.518C550.536 175.582 548.789 181.626 548.789 188.6H550.789ZM555.707 171.666C559.11 166.836 563.667 163.152 569.404 160.615L568.595 158.785C562.545 161.461 557.696 165.371 554.072 170.514L555.707 171.666ZM569.412 160.611C575.275 157.956 581.818 156.62 589.059 156.62V154.62C581.567 154.62 574.738 156.004 568.587 158.789L569.412 160.611ZM589.059 156.62C596.541 156.62 602.902 157.904 608.177 160.432L609.041 158.628C603.436 155.942 596.765 154.62 589.059 154.62V156.62ZM608.2 160.442C613.645 162.887 618.118 166.041 621.641 169.895L623.117 168.545C619.387 164.465 614.68 161.16 609.019 158.618L608.2 160.442ZM621.662 169.916C625.339 173.705 628.163 177.643 630.15 181.727L631.949 180.853C629.856 176.551 626.9 172.442 623.097 168.524L621.662 169.916ZM630.565 180.415L611.525 190.955L612.494 192.705L631.534 182.165L630.565 180.415ZM612.882 191.341C611.251 188.429 609.269 185.805 606.936 183.473L605.522 184.887C607.723 187.088 609.594 189.564 611.137 192.319L612.882 191.341ZM606.971 183.509C604.732 181.035 602.135 179.086 599.182 177.668L598.317 179.472C601.031 180.774 603.42 182.565 605.488 184.851L606.971 183.509ZM599.211 177.683C596.217 176.126 592.825 175.36 589.059 175.36V177.36C592.547 177.36 595.615 178.067 598.288 179.457L599.211 177.683ZM589.059 175.36C584.157 175.36 580.295 176.526 577.66 179.036L579.039 180.484C581.164 178.46 584.442 177.36 589.059 177.36V175.36ZM577.678 179.018C575.11 181.342 573.779 184.154 573.779 187.41H575.779C575.779 184.773 576.829 182.484 579.02 180.502L577.678 179.018ZM573.779 187.41C573.779 190.596 574.829 193.432 576.907 195.878L578.431 194.582C576.657 192.495 575.779 190.117 575.779 187.41H573.779ZM576.924 195.897C578.964 198.177 582.029 200.34 586.052 202.409L586.967 200.631C583.056 198.62 580.228 196.59 578.415 194.563L576.924 195.897ZM586.072 202.42C590.089 204.37 595.117 206.369 601.148 208.417L601.791 206.523C595.808 204.491 590.863 202.523 586.946 200.62L586.072 202.42ZM601.137 208.413C604.931 209.752 608.558 211.426 612.017 213.435L613.022 211.705C609.454 209.634 605.714 207.908 601.802 206.527L601.137 208.413ZM612.029 213.442C615.572 215.435 618.724 217.868 621.489 220.743L622.93 219.357C620.028 216.339 616.72 213.785 613.01 211.698L612.029 213.442ZM621.516 220.771C624.356 223.501 626.545 226.781 628.081 230.621L629.938 229.879C628.301 225.786 625.956 222.265 622.902 219.329L621.516 220.771ZM628.094 230.654C629.728 234.356 630.559 238.69 630.559 243.68H632.559C632.559 238.47 631.691 233.851 629.924 229.846L628.094 230.654ZM630.559 243.68C630.559 249.327 629.453 254.327 627.265 258.703L629.054 259.597C631.399 254.907 632.559 249.593 632.559 243.68H630.559ZM627.265 258.703C625.063 263.106 622.039 266.846 618.185 269.929L619.434 271.491C623.513 268.227 626.722 264.26 629.054 259.597L627.265 258.703ZM618.199 269.918C614.328 272.904 609.957 275.174 605.076 276.727L605.683 278.633C610.775 277.012 615.357 274.636 619.42 271.502L618.199 269.918ZM605.05 276.736C600.288 278.397 595.243 279.23 589.909 279.23V281.23C595.455 281.23 600.724 280.363 605.709 278.624L605.05 276.736ZM589.909 279.23C582.785 279.23 576.119 277.895 569.903 275.231L569.115 277.069C575.593 279.845 582.528 281.23 589.909 281.23V279.23ZM569.923 275.24C563.799 272.456 558.462 268.73 553.905 264.061L552.474 265.459C557.21 270.31 562.753 274.177 569.096 277.06L569.923 275.24ZM553.905 264.061C549.33 259.375 545.77 254.309 543.215 248.865L541.404 249.715C544.062 255.378 547.756 260.625 552.474 265.459L553.905 264.061ZM542.886 250.107L560.226 237.867L559.073 236.233L541.733 248.473L542.886 250.107ZM669.059 210.19L669.909 209.664L668.393 207.214L668.065 210.076L669.059 210.19ZM661.409 277V278H662.301L662.402 277.114L661.409 277ZM636.079 277L635.089 276.86L634.928 278H636.079V277ZM653.759 152.05L654.598 151.506L653.144 149.262L652.769 151.91L653.759 152.05ZM703.569 228.89L702.73 229.434L703.569 230.728L704.408 229.434L703.569 228.89ZM753.379 152.05L754.369 151.91L753.994 149.262L752.54 151.506L753.379 152.05ZM771.059 277V278H772.21L772.049 276.86L771.059 277ZM745.729 277L744.735 277.114L744.837 278H745.729V277ZM738.079 210.19L739.072 210.076L738.745 207.214L737.229 209.664L738.079 210.19ZM703.569 265.95L702.719 266.476L703.569 267.85L704.419 266.476L703.569 265.95ZM668.065 210.076L660.415 276.886L662.402 277.114L670.052 210.304L668.065 210.076ZM661.409 276H636.079V278H661.409V276ZM637.069 277.14L654.749 152.19L652.769 151.91L635.089 276.86L637.069 277.14ZM652.92 152.594L702.73 229.434L704.408 228.346L654.598 151.506L652.92 152.594ZM704.408 229.434L754.218 152.594L752.54 151.506L702.73 228.346L704.408 229.434ZM752.389 152.19L770.069 277.14L772.049 276.86L754.369 151.91L752.389 152.19ZM771.059 276H745.729V278H771.059V276ZM746.723 276.886L739.072 210.076L737.085 210.304L744.735 277.114L746.723 276.886ZM737.229 209.664L702.719 265.424L704.419 266.476L738.929 210.716L737.229 209.664ZM704.419 265.424L669.909 209.664L668.209 210.716L702.719 266.476L704.419 265.424ZM808.665 221.58V220.58H806.831L807.824 222.122L808.665 221.58ZM834.335 221.58L835.154 221.007L834.856 220.58H834.335V221.58ZM873.095 277V278H875.015L873.914 276.427L873.095 277ZM844.365 277L843.524 277.542L843.819 278H844.365V277ZM781.635 158V157H780.635V158H781.635ZM805.945 158H806.945V157H805.945V158ZM805.945 277V278H806.945V277H805.945ZM781.635 277H780.635V278H781.635V277ZM796.425 178.74H795.425V179.74H796.425V178.74ZM796.425 158V157H795.425V158H796.425ZM845.555 162.76L845.12 163.661L845.12 163.661L845.555 162.76ZM860.685 176.02L859.835 176.547L859.835 176.547L860.685 176.02ZM860.685 215.8L861.535 216.327L861.539 216.319L860.685 215.8ZM845.555 229.06L845.12 228.159L845.12 228.159L845.555 229.06ZM796.425 233.82H795.425V234.82H796.425V233.82ZM796.425 214.44V213.44H795.425V214.44H796.425ZM831.105 212.4L831.511 213.314L831.518 213.31L831.526 213.307L831.105 212.4ZM838.415 206.28L839.252 206.826L839.258 206.818L839.263 206.81L838.415 206.28ZM838.415 187.07L837.567 187.6L837.572 187.608L837.577 187.616L838.415 187.07ZM831.105 180.95L830.671 181.851L830.691 181.861L830.711 181.869L831.105 180.95ZM808.665 222.58H834.335V220.58H808.665V222.58ZM833.515 222.153L872.275 277.573L873.914 276.427L835.154 221.007L833.515 222.153ZM873.095 276H844.365V278H873.095V276ZM845.206 276.458L809.506 221.038L807.824 222.122L843.524 277.542L845.206 276.458ZM781.635 159H805.945V157H781.635V159ZM804.945 158V277H806.945V158H804.945ZM805.945 276H781.635V278H805.945V276ZM782.635 277V158H780.635V277H782.635ZM797.425 178.74V158H795.425V178.74H797.425ZM796.425 159H821.585V157H796.425V159ZM821.585 159C830.883 159 838.716 160.569 845.12 163.661L845.99 161.859C839.247 158.605 831.1 157 821.585 157V159ZM845.12 163.661C851.539 166.759 856.431 171.057 859.835 176.547L861.535 175.493C857.912 169.65 852.717 165.107 845.99 161.859L845.12 163.661ZM859.835 176.547C863.237 182.034 864.955 188.476 864.955 195.91H866.955C866.955 188.157 865.159 181.339 861.535 175.493L859.835 176.547ZM864.955 195.91C864.955 203.227 863.239 209.673 859.83 215.281L861.539 216.319C865.158 210.367 866.955 203.553 866.955 195.91H864.955ZM859.835 215.273C856.431 220.763 851.539 225.061 845.12 228.159L845.99 229.961C852.717 226.713 857.912 222.17 861.535 216.327L859.835 215.273ZM845.12 228.159C838.716 231.251 830.883 232.82 821.585 232.82V234.82C831.1 234.82 839.247 233.215 845.99 229.961L845.12 228.159ZM821.585 232.82H796.425V234.82H821.585V232.82ZM797.425 233.82V214.44H795.425V233.82H797.425ZM796.425 215.44H820.055V213.44H796.425V215.44ZM820.055 215.44C824.463 215.44 828.292 214.744 831.511 213.314L830.699 211.486C827.798 212.776 824.26 213.44 820.055 213.44V215.44ZM831.526 213.307C834.847 211.765 837.438 209.609 839.252 206.826L837.577 205.734C835.992 208.165 833.709 210.088 830.684 211.493L831.526 213.307ZM839.263 206.81C841.078 203.906 841.965 200.486 841.965 196.59H839.965C839.965 200.174 839.152 203.214 837.567 205.75L839.263 206.81ZM841.965 196.59C841.965 192.696 841.078 189.323 839.252 186.524L837.577 187.616C839.152 190.03 839.965 193.004 839.965 196.59H841.965ZM839.263 186.54C837.446 183.634 834.845 181.465 831.499 180.031L830.711 181.869C833.712 183.155 835.983 185.066 837.567 187.6L839.263 186.54ZM831.539 180.049C828.312 178.495 824.473 177.74 820.055 177.74V179.74C824.25 179.74 827.778 180.458 830.671 181.851L831.539 180.049ZM820.055 177.74H796.425V179.74H820.055V177.74Z" fill="#202020" mask="url(#path-3-outside-2_24_74)"/>
</g>
<defs>
<filter id="filter0_di_24_74" x="17.8" y="42" width="458.191" height="286" filterUnits="userSpaceOnUse" color-interpolation-filters="sRGB">
<feFlood flood-opacity="0" result="BackgroundImageFix"/>
<feColorMatrix in="SourceAlpha" type="matrix" values="0 0 0 0 0 0 0 0 0 0 0 0 0 0 0 0 0 0 127 0" result="hardAlpha"/>
<feOffset dy="3"/>
<feGaussianBlur stdDeviation="2.5"/>
<feComposite in2="hardAlpha" operator="out"/>
<feColorMatrix type="matrix" values="0 0 0 0 0.104378 0 0 0 0 0.104378 0 0 0 0 0.104378 0 0 0 1 0"/>
<feBlend mode="normal" in2="BackgroundImageFix" result="effect1_dropShadow_24_74"/>
<feBlend mode="normal" in="SourceGraphic" in2="effect1_dropShadow_24_74" result="shape"/>
<feColorMatrix in="SourceAlpha" type="matrix" values="0 0 0 0 0 0 0 0 0 0 0 0 0 0 0 0 0 0 127 0" result="hardAlpha"/>
<feOffset dy="4"/>
<feGaussianBlur stdDeviation="7"/>
<feComposite in2="hardAlpha" operator="arithmetic" k2="-1" k3="1"/>
<feColorMatrix type="matrix" values="0 0 0 0 0 0 0 0 0 0 0 0 0 0 0 0 0 0 1 0"/>
<feBlend mode="normal" in2="shape" result="effect2_innerShadow_24_74"/>
</filter>
<filter id="filter1_di_24_74" x="419.17" y="149.03" width="458.925" height="139.2" filterUnits="userSpaceOnUse" color-interpolation-filters="sRGB">
<feFlood flood-opacity="0" result="BackgroundImageFix"/>
<feColorMatrix in="SourceAlpha" type="matrix" values="0 0 0 0 0 0 0 0 0 0 0 0 0 0 0 0 0 0 127 0" result="hardAlpha"/>
<feOffset dy="3"/>
<feGaussianBlur stdDeviation="2.5"/>
<feComposite in2="hardAlpha" operator="out"/>
<feColorMatrix type="matrix" values="0 0 0 0 0.104378 0 0 0 0 0.104378 0 0 0 0 0.104378 0 0 0 1 0"/>
<feBlend mode="normal" in2="BackgroundImageFix" result="effect1_dropShadow_24_74"/>
<feBlend mode="normal" in="SourceGraphic" in2="effect1_dropShadow_24_74" result="shape"/>
<feColorMatrix in="SourceAlpha" type="matrix" values="0 0 0 0 0 0 0 0 0 0 0 0 0 0 0 0 0 0 127 0" result="hardAlpha"/>
<feOffset dy="4"/>
<feGaussianBlur stdDeviation="7"/>
<feComposite in2="hardAlpha" operator="arithmetic" k2="-1" k3="1"/>
<feColorMatrix type="matrix" values="0 0 0 0 0 0 0 0 0 0 0 0 0 0 0 0 0 0 1 0"/>
<feBlend mode="normal" in2="shape" result="effect2_innerShadow_24_74"/>
</filter>
</defs>
</svg>
